<svg width="13" height="14" viewBox="0 0 13 14" fill="none" xmlns="http://www.w3.org/2000/svg">
<path d="M10.5494 11.4459C12.832 9.12777 12.832 5.3693 10.5494 3.05115C8.26681 0.733001 4.56599 0.733001 2.2834 3.05115C0.000800405 5.3693 0.000800238 9.12777 2.2834 11.4459C4.56599 13.7641 8.26681 13.7641 10.5494 11.4459Z" fill="#1D1E1D"/>
<path d="M12.6201 6.5887C12.295 3.40067 9.64181 0.915039 6.41655 0.915039C3.1913 0.915039 0.539029 3.40067 0.213867 6.5887H12.6201Z" fill="url(#paint0_linear_1470_2440)"/>
<path d="M0.213867 7.9082C0.539029 11.0962 3.19218 13.5819 6.41655 13.5819C9.64093 13.5819 12.295 11.0962 12.6192 7.9082H0.213867Z" fill="#E7E7E9"/>
<path d="M6.4162 9.24373C7.50146 9.24373 8.38124 8.35025 8.38124 7.24808C8.38124 6.14592 7.50146 5.25244 6.4162 5.25244C5.33095 5.25244 4.45117 6.14592 4.45117 7.24808C4.45117 8.35025 5.33095 9.24373 6.4162 9.24373Z" fill="#1D1E1D"/>
<path d="M6.41615 8.80738C7.26407 8.80738 7.95145 8.1093 7.95145 7.24817C7.95145 6.38705 7.26407 5.68896 6.41615 5.68896C5.56823 5.68896 4.88086 6.38705 4.88086 7.24817C4.88086 8.1093 5.56823 8.80738 6.41615 8.80738Z" fill="#F7F7F7"/>
<path d="M6.41601 8.30033C6.98824 8.30033 7.45213 7.82922 7.45213 7.24807C7.45213 6.66692 6.98824 6.1958 6.41601 6.1958C5.84377 6.1958 5.37988 6.66692 5.37988 7.24807C5.37988 7.82922 5.84377 8.30033 6.41601 8.30033Z" fill="#B8B5B5"/>
<path d="M6.41572 8.22267C6.94573 8.22267 7.37539 7.78632 7.37539 7.24805C7.37539 6.70979 6.94573 6.27344 6.41572 6.27344C5.88571 6.27344 5.45605 6.70979 5.45605 7.24805C5.45605 7.78632 5.88571 8.22267 6.41572 8.22267Z" fill="#F7F7F7"/>
<defs>
<linearGradient id="paint0_linear_1470_2440" x1="13.6724" y1="5.66416" x2="2.4895" y2="5.89529" gradientUnits="userSpaceOnUse">
<stop stop-color="#B57E10"/>
<stop offset="0.240861" stop-color="#B57E10"/>
<stop offset="0.404291" stop-color="#F9DF7B"/>
<stop offset="0.59375" stop-color="#FFF3A6"/>
<stop offset="0.78125" stop-color="#F9DF7B"/>
<stop offset="1" stop-color="#B57E10"/>
</linearGradient>
</defs>
</svg>
